<?xml version="1.0" encoding="UTF-8" standalone="no"?>
<!DOCTYPE svg PUBLIC "-//W3C//DTD SVG 20010904//EN" "http://www.w3.org/TR/2001/REC-SVG-20010904/DTD/svg10.dtd">
<svg version="1.0" xmlns="http://www.w3.org/2000/svg" width="546.000000pt" height="930.000000pt" viewBox="0 0 546.000000 930.000000" preserveAspectRatio="xMidYMid meet">
<metadata>
Created by potrace 1.15, written by Peter Selinger 2001-2017
</metadata>
<g transform="translate(0.000000,930.000000) scale(0.100000,-0.100000)" fill="#441C00" stroke="none">
<path d="M1976 9284 c-3 -9 -6 -50 -6 -93 0 -43 -4 -102 -10 -132 -9 -52 -27 -270 -36 -429 -2 -41 -9 -158 -15 -260 -7 -116 -9 -325 -6 -560 6 -373 11 -461 42 -765 9 -88 20 -203 25 -255 10 -105 25 -208 40 -278 16 -73 28 -134 35 -172 5 -31 4 -33 -7 -16 -7 11 -40 56 -74 100 -33 45 -102 140 -154 211 -147 204 -221 286 -591 655 -190 190 -406 413 -479 495 -74 83 -233 249 -355 370 -166 165 -233 238 -266 293 -24 39 -47 72 -51 72 -28 0 15 -90 101 -210 33 -47 70 -98 81 -115 43 -62 134 -190 140 -195 3 -3 21 -25 40 -50 19 -25 37 -47 40 -50 35 -34 266 -301 310 -359 13 -18 34 -43 46 -56 12 -13 75 -91 140 -172 65 -81 123 -153 129 -159 42 -44 135 -157 218 -263 54 -69 115 -144 136 -166 55 -59 141 -165 141 -174 0 -4 8 -16 18 -27 10 -10 25 -32 33 -49 16 -30 35 -66 161 -294 37 -68 68 -125 68 -127 0 -2 15 -34 33 -71 54 -112 66 -152 131 -433 8 -36 26 -112 40 -170 62 -255 108 -490 126 -635 5 -38 16 -124 24 -190 21 -161 27 -227 51 -515 14 -171 45 -744 50 -945 5 -180 8 -185 -51 75 -15 63 -33 140 -41 170 -8 30 -21 82 -28 115 -28 119 -96 356 -115 400 -4 11 -26 70 -49 130 -36 100 -102 275 -136 365 -32 85 -71 181 -102 248 -18 41 -33 75 -33 76 0 2 -31 69 -70 150 -38 80 -70 148 -70 151 0 3 -9 24 -19 48 -45 101 -194 546 -234 702 -39 150 -61 246 -72 315 -7 41 -19 111 -28 155 -9 44 -19 116 -24 159 -9 92 -28 111 -39 40 -9 -61 3 -561 15 -634 30 -177 53 -288 81 -390 17 -63 36 -133 41 -155 21 -89 182 -550 219 -630 5 -11 18 -45 28 -75 11 -30 47 -129 80 -220 88 -243 134 -390 196 -620 13 -47 38 -137 55 -200 18 -63 36 -131 40 -150 5 -19 20 -80 35 -135 36 -133 94 -403 117 -545 34 -199 91 -606 104 -745 3 -33 10 -80 15 -105 5 -25 12 -70 15 -100 6 -59 21 -143 36 -201 5 -20 9 -48 9 -63 0 -15 11 -82 24 -149 13 -67 29 -156 35 -197 6 -41 16 -100 21 -130 5 -30 17 -122 25 -205 9 -82 19 -159 22 -170 3 -11 9 -146 12 -300 6 -250 8 -275 19 -235 21 74 26 78 30 23 2 -29 7 -53 12 -53 9 0 13 15 36 150 9 52 20 118 25 145 15 87 96 369 134 466 20 52 137 297 261 546 123 249 224 454 224 457 0 3 18 44 41 93 54 118 62 136 94 223 15 41 35 95 45 120 34 88 103 313 120 395 6 28 17 79 25 115 16 74 51 292 65 401 4 41 15 126 24 189 9 63 20 187 26 276 19 298 32 428 79 764 45 327 55 382 88 535 34 159 45 202 88 345 12 41 28 95 35 120 7 25 25 83 41 130 15 47 46 143 69 214 51 161 107 308 152 406 33 69 163 299 177 310 4 3 26 37 51 75 58 91 217 311 291 401 130 159 376 409 624 634 28 25 67 53 88 63 39 18 45 39 13 45 -20 4 -340 -148 -501 -238 -33 -18 -76 -42 -95 -53 -40 -22 -131 -83 -210 -140 -72 -53 -279 -261 -357 -358 -33 -42 -86 -117 -118 -165 -31 -49 -70 -107 -85 -129 -15 -22 -37 -56 -48 -75 -11 -19 -46 -80 -77 -135 -57 -100 -255 -488 -255 -500 0 -3 -9 -25 -19 -48 -76 -167 -177 -482 -239 -747 -46 -193 -73 -326 -87 -432 -13 -98 -22 -41 -29 180 -3 125 -11 274 -16 332 -21 239 -41 440 -50 525 -23 213 4 1246 40 1505 6 41 19 165 30 275 30 302 48 446 65 527 8 40 19 109 24 153 6 44 15 103 22 130 6 28 17 79 24 115 7 36 20 92 28 125 9 33 30 121 47 195 18 74 36 149 42 165 5 17 12 80 15 140 4 105 4 109 -12 81 -16 -30 -18 -37 -55 -191 -12 -49 -31 -119 -41 -155 -10 -36 -23 -85 -28 -110 -10 -47 -45 -190 -61 -250 -12 -41 -110 -440 -146 -590 -14 -58 -36 -148 -49 -200 -25 -99 -49 -202 -65 -280 -5 -25 -14 -65 -19 -90 -27 -128 -59 -381 -81 -650 -5 -69 -12 -296 -15 -505 -3 -209 -8 -483 -12 -610 -4 -126 -7 -242 -7 -257 -1 -14 -3 -29 -7 -32 -3 -3 -10 54 -17 127 -20 215 -77 527 -136 740 -17 63 -72 222 -105 305 -29 73 -58 147 -85 217 -137 356 -210 541 -226 567 -5 10 -10 23 -10 29 0 6 -7 25 -15 42 -21 46 -104 298 -130 397 -12 47 -37 139 -55 205 -17 66 -35 138 -40 160 -48 230 -72 357 -85 450 -8 61 -20 135 -25 165 -19 103 -40 404 -40 582 0 161 -7 207 -24 162z m13 -899 c16 -137 31 -245 42 -300 5 -27 19 -97 30 -155 11 -58 45 -202 75 -320 31 -118 59 -228 64 -245 12 -50 109 -334 129 -378 23 -52 88 -223 113 -297 10 -30 23 -64 28 -75 6 -11 14 -33 19 -50 5 -16 37 -104 71 -195 71 -190 83 -224 116 -340 30 -107 80 -331 95 -430 6 -41 15 -97 20 -125 22 -140 48 -412 59 -635 12 -230 12 -1034 0 -1070 -7 -21 -8 -17 -9 20 -1 46 -28 288 -36 325 -3 11 -7 40 -9 65 -6 53 -21 137 -48 275 -11 55 -24 121 -28 147 -17 93 -101 385 -156 543 -25 72 -75 216 -110 320 -82 244 -114 335 -162 470 -60 165 -90 275 -151 550 -19 89 -54 312 -66 430 -4 33 -17 143 -30 245 -30 237 -43 383 -55 600 -13 235 -24 726 -17 720 3 -3 11 -46 16 -95z m3061 -1022 c-222 -204 -471 -471 -601 -644 -66 -89 -114 -155 -124 -171 -5 -9 -58 -87 -116 -174 -58 -88 -118 -181 -132 -209 -41 -79 -127 -266 -127 -277 0 -6 -6 -24 -14 -41 -24 -54 -113 -305 -186 -524 -65 -197 -120 -404 -135 -503 -3 -25 -10 -58 -15 -75 -5 -16 -12 -52 -15 -80 -3 -27 -12 -86 -20 -130 -9 -44 -22 -127 -30 -185 -8 -58 -21 -145 -30 -194 -9 -49 -20 -155 -25 -235 -23 -358 -46 -595 -75 -786 -8 -55 -19 -129 -25 -165 -40 -279 -81 -445 -168 -695 -90 -255 -162 -424 -335 -785 -30 -63 -65 -137 -77 -165 -13 -27 -36 -79 -52 -115 -78 -169 -131 -318 -187 -520 l-20 -75 3 75 c4 86 38 329 67 475 30 154 67 278 160 535 22 63 67 194 99 290 53 156 160 445 195 525 14 33 68 199 108 335 25 84 67 277 87 398 5 34 14 88 20 120 14 85 39 306 55 492 8 91 17 181 20 200 4 32 26 209 39 305 2 22 11 81 20 130 8 50 20 117 25 150 5 33 15 83 21 110 6 28 17 82 24 120 33 174 125 492 215 745 27 76 119 279 200 440 249 497 483 833 725 1042 68 59 187 143 316 223 19 12 49 30 65 41 17 10 46 27 65 37 19 11 39 23 45 28 5 5 11 9 14 9 3 0 -32 -35 -79 -77z m-1852 -305 c-11 -138 -28 -500 -34 -730 -4 -120 -10 -218 -15 -218 -29 0 12 922 46 1018 9 25 10 10 3 -70z m-1323 -853 c145 -232 328 -656 495 -1145 55 -162 141 -496 174 -680 9 -47 18 -96 21 -110 5 -27 26 -183 50 -370 8 -63 20 -231 27 -373 10 -224 10 -294 -5 -525 -37 -598 -76 -952 -142 -1317 l-24 -130 7 260 c4 143 7 555 7 915 0 613 -3 713 -30 965 -2 22 -9 103 -15 180 -14 178 -44 390 -95 680 -49 277 -53 300 -64 340 -5 22 -21 85 -34 140 -13 55 -34 135 -46 178 -42 153 -106 394 -122 462 -40 167 -116 354 -198 489 -66 108 -94 161 -78 146 9 -8 41 -55 72 -105z m1314 -775 c6 -47 13 -130 16 -185 3 -55 10 -145 15 -200 18 -177 24 -647 11 -870 -30 -552 -43 -701 -71 -815 -5 -19 -16 -71 -26 -115 -15 -74 -27 -120 -74 -296 -24 -87 -58 -203 -75 -259 -8 -25 -28 -85 -44 -135 -16 -49 -48 -151 -71 -225 -75 -243 -173 -541 -176 -537 -4 4 26 160 48 247 11 47 24 101 28 120 29 138 49 247 59 320 19 141 32 241 41 315 5 39 11 77 14 85 3 8 12 92 21 185 9 94 20 195 25 225 5 30 12 78 15 105 7 59 36 243 64 410 27 157 37 233 55 390 46 408 56 556 71 1075 7 256 14 467 15 470 2 3 8 -47 16 -110 7 -63 17 -153 23 -200z m-1850 180 c6 -19 21 -73 35 -120 14 -47 39 -134 56 -195 36 -123 105 -334 125 -380 8 -16 28 -61 46 -100 18 -38 38 -83 44 -100 7 -16 29 -70 50 -120 20 -49 40 -101 45 -115 5 -14 36 -104 69 -200 33 -96 59 -176 57 -177 -2 -2 -8 9 -13 24 -19 50 -135 347 -153 388 -9 22 -27 67 -39 100 -13 33 -27 69 -31 80 -44 105 -67 164 -103 265 -49 135 -80 229 -117 350 -17 58 -35 116 -40 130 -18 49 -52 196 -56 235 l-4 40 10 -35 c6 -19 14 -51 19 -70z m896 -2830 c28 -112 64 -277 75 -345 25 -159 29 -205 28 -315 -1 -130 -4 -118 -33 125 -9 72 -20 157 -26 190 -5 33 -14 89 -20 125 -19 127 -31 195 -39 225 -4 17 -11 50 -13 75 -5 43 -5 44 4 10 6 -19 17 -60 24 -90z"/>
</g>
</svg>