<?xml version="1.0" encoding="UTF-8" standalone="no"?>
<svg version="1.0" xmlns="http://www.w3.org/2000/svg" width="1280.000000pt" height="1272.000000pt" viewBox="0 0 1280.000000 1272.000000" preserveAspectRatio="xMidYMid meet">
<g transform="translate(0.000000,1272.000000) scale(0.100000,-0.100000)" fill="#441C00" stroke="none">
<path d="M4315 12609 c-230 -31 -350 -113 -512 -354 -45 -66 -125 -172 -177 -235 -52 -63 -109 -141 -126 -172 -24 -45 -36 -58 -54 -58 -72 0 -580 -308 -731 -442 -28 -24 -115 -93 -195 -153 -407 -305 -617 -491 -1110 -985 -531 -532 -1195 -1210 -1252 -1278 -53 -63 -63 -98 -25 -87 12 4 62 31 112 60 50 29 105 60 123 69 18 9 104 70 190 135 86 65 233 166 325 226 92 59 190 125 217 146 27 21 53 39 58 39 5 0 76 42 158 93 82 51 172 105 199 121 28 17 263 166 524 334 261 167 481 306 489 310 26 10 7 -41 -110 -283 -239 -499 -347 -779 -448 -1165 -28 -107 -75 -278 -105 -380 -70 -239 -128 -477 -121 -496 3 -8 13 -14 21 -14 21 0 182 157 463 453 124 130 229 237 233 237 4 0 -13 -57 -38 -127 -83 -239 -159 -526 -173 -658 -5 -44 -10 -89 -12 -100 -2 -15 3 -21 22 -23 40 -5 90 37 125 103 17 33 65 116 107 185 41 69 144 242 228 385 84 143 220 373 302 512 239 405 443 839 564 1198 153 458 222 809 244 1233 10 202 14 230 49 366 13 47 21 111 21 158 0 43 6 93 14 111 21 50 108 149 178 202 212 160 462 173 733 38 160 -80 450 -302 725 -553 85 -78 202 -181 259 -228 161 -134 296 -251 406 -352 55 -50 162 -141 238 -202 75 -61 137 -116 137 -122 0 -6 -15 -20 -32 -31 -52 -30 -128 -105 -164 -161 -18 -28 -62 -75 -98 -103 -70 -56 -130 -130 -148 -183 -22 -66 -64 -92 -260 -164 -199 -72 -388 -189 -543 -336 -180 -170 -455 -508 -564 -693 -122 -206 -313 -596 -498 -1015 -171 -390 -215 -480 -315 -648 -150 -253 -236 -447 -226 -514 5 -38 31 -32 111 24 41 29 147 99 234 155 336 216 525 372 863 712 l265 267 -3 -531 c-2 -291 0 -553 5 -580 7 -43 12 -50 33 -53 67 -8 214 215 479 727 99 192 137 258 139 240 5 -31 62 -320 101 -509 16 -80 37 -199 46 -265 36 -271 45 -309 76 -325 13 -8 25 -7 39 0 13 7 -15 -42 -68 -122 -179 -268 -331 -532 -591 -1027 -100 -191 -109 -214 -91 -236 20 -24 45 -18 96 25 27 23 73 55 102 71 28 17 52 34 52 39 0 5 16 17 35 26 33 15 235 174 530 416 71 59 131 106 132 104 2 -1 -4 -37 -12 -80 -15 -79 -20 -212 -9 -253 12 -45 92 -22 199 57 27 21 113 90 189 154 76 64 140 115 142 114 1 -2 -9 -64 -23 -138 -33 -174 -38 -406 -11 -457 42 -75 75 -56 306 176 243 243 438 464 498 562 16 26 70 100 119 165 341 448 506 800 625 1335 11 50 47 263 80 472 70 445 97 542 176 637 24 28 32 31 62 26 65 -10 442 -244 667 -414 320 -242 484 -409 757 -772 76 -102 296 -458 358 -579 l22 -45 -24 -20 c-14 -12 -59 -49 -101 -83 -42 -35 -100 -93 -130 -130 -87 -109 -227 -211 -327 -239 -104 -28 -353 -116 -459 -161 -206 -87 -519 -265 -784 -447 -81 -55 -184 -123 -228 -149 -44 -27 -83 -55 -86 -63 -3 -8 -10 -14 -17 -14 -39 0 -340 -217 -541 -391 -205 -176 -599 -535 -649 -590 -57 -64 -86 -117 -86 -160 0 -31 1 -32 38 -26 45 5 186 74 287 139 99 64 890 481 1008 532 20 9 53 23 73 32 l37 15 -48 -68 c-172 -243 -463 -621 -596 -775 -74 -86 -99 -131 -99 -177 0 -34 22 -51 67 -51 50 0 352 183 591 359 106 77 215 149 393 256 66 41 90 51 86 38 -3 -10 -28 -79 -56 -153 -243 -651 -340 -956 -329 -1045 2 -26 8 -30 35 -33 17 -2 46 4 63 13 100 52 477 471 680 755 37 52 80 106 95 120 l28 25 -7 -175 c-17 -442 -109 -1166 -196 -1552 -49 -216 -143 -529 -212 -705 -30 -78 -38 -113 -36 -149 7 -101 62 -77 189 79 157 194 333 480 475 771 253 522 311 692 544 1611 66 260 93 411 115 635 21 225 37 488 31 519 -3 14 -15 143 -26 286 -21 275 -35 403 -50 471 -9 39 -6 48 42 140 28 55 73 126 99 159 55 70 192 205 208 205 16 0 127 -144 240 -310 186 -274 268 -428 494 -925 118 -258 228 -506 246 -550 65 -162 381 -1319 471 -1725 66 -299 327 -2139 385 -2720 39 -391 76 -625 105 -681 7 -12 21 -19 40 -19 24 0 31 5 36 27 17 66 -15 1185 -41 1488 -82 916 -158 1550 -230 1910 -49 244 -218 880 -341 1280 -87 283 -328 886 -532 1332 -60 131 -135 308 -167 393 -109 293 -216 481 -355 625 -54 56 -107 124 -141 180 -123 208 -410 623 -497 720 -83 92 -415 423 -677 675 -61 58 -146 143 -190 190 -124 132 -278 232 -436 283 -150 49 -204 84 -481 308 -237 192 -435 397 -673 694 -295 370 -502 570 -645 625 -74 28 -177 96 -323 213 -126 100 -752 627 -1012 852 -38 33 -151 126 -250 205 -99 79 -227 187 -285 239 -164 147 -358 264 -566 341 -82 31 -99 33 -224 36 -74 1 -166 -2 -205 -7z m2511 -1969 c40 -16 289 -256 569 -552 463 -488 567 -582 1080 -983 l30 -23 -31 -33 c-48 -52 -92 -122 -134 -212 -25 -55 -54 -97 -85 -127 -26 -25 -55 -61 -65 -81 -27 -51 -74 -89 -186 -149 -55 -30 -159 -89 -231 -132 -73 -43 -140 -81 -150 -85 -23 -8 -246 -159 -338 -229 -259 -195 -867 -795 -1042 -1029 -42 -55 -77 -101 -78 -103 -11 -13 16 71 29 89 9 13 16 36 16 50 0 15 11 49 25 76 13 26 58 163 99 303 41 140 102 341 134 445 70 225 96 329 116 485 26 189 36 397 36 746 0 484 -17 657 -91 944 -44 170 -46 216 -13 395 22 119 45 159 107 189 55 28 151 35 203 16z"/>
</g>
</svg>