<?xml version="1.0" encoding="UTF-8" standalone="no"?>
<!DOCTYPE svg PUBLIC "-//W3C//DTD SVG 20010904//EN" "http://www.w3.org/TR/2001/REC-SVG-20010904/DTD/svg10.dtd">
<svg version="1.0" xmlns="http://www.w3.org/2000/svg" width="188.000000pt" height="777.000000pt" viewBox="0 0 188.000000 777.000000" preserveAspectRatio="xMidYMid meet">
<g transform="translate(0.000000,777.000000) scale(0.100000,-0.100000)" fill="#441C00" stroke="none">
<path d="M50 7748 c0 -13 6 -31 13 -40 22 -29 126 -76 180 -82 255 -28 318 -38 394 -65 44 -16 95 -37 112 -45 94 -49 139 -132 127 -233 -6 -49 -3 -61 29 -125 19 -40 35 -83 35 -96 l0 -24 -32 24 c-18 13 -44 29 -59 35 -37 16 -89 119 -89 176 0 54 -14 67 -42 39 -17 -17 -20 -34 -21 -123 -2 -112 8 -145 60 -200 l25 -27 -54 -17 c-53 -17 -164 -78 -204 -113 -57 -49 -98 -162 -59 -162 9 0 18 7 22 15 7 21 80 58 118 62 64 6 142 27 190 52 28 14 71 35 97 47 l48 23 -44 -87 c-39 -77 -76 -144 -136 -247 -164 -281 -240 -426 -269 -515 -6 -19 -22 -82 -35 -140 -13 -58 -36 -150 -51 -205 -64 -239 -83 -345 -115 -660 -5 -49 -16 -153 -25 -230 -8 -77 -18 -160 -21 -185 -18 -173 -35 -327 -44 -400 -17 -149 -29 -282 -35 -400 -3 -63 -10 -158 -15 -210 -22 -215 -29 -478 -20 -665 5 -104 10 -228 11 -275 2 -104 25 -415 40 -530 70 -556 109 -725 247 -1055 26 -63 237 -491 338 -685 48 -92 72 -105 136 -71 24 12 60 43 81 69 151 186 260 374 355 612 28 69 64 159 80 200 102 252 182 521 216 720 2 14 7 36 10 50 3 14 10 63 16 110 5 47 16 136 25 198 34 252 44 332 55 432 6 58 12 123 15 145 16 146 26 261 35 410 6 94 13 195 15 225 34 456 43 1162 16 1380 -5 47 -12 105 -15 130 -42 387 -94 644 -189 930 -46 138 -138 387 -175 475 -42 98 -134 301 -150 330 -3 6 3 3 14 -7 21 -18 126 -48 171 -48 63 0 133 80 78 88 -12 2 -52 32 -90 67 l-69 65 44 23 c57 30 81 72 85 145 1 31 6 78 10 105 7 43 6 47 -13 47 -15 0 -25 -12 -38 -47 -21 -55 -63 -119 -83 -128 -8 -3 -24 1 -37 10 -21 13 -24 24 -26 97 -3 69 -6 83 -20 86 -11 2 -25 -9 -37 -28 -25 -42 -32 -27 -36 73 -2 81 -2 82 -40 112 -21 16 -68 58 -104 93 -67 64 -204 155 -276 183 -173 69 -285 90 -491 96 -83 2 -181 6 -218 10 -65 6 -66 6 -66 -19z m967 -1330 c14 -73 45 -177 77 -263 13 -33 26 -78 29 -100 6 -40 6 -40 -39 -59 -146 -60 -244 -247 -213 -408 7 -35 20 -79 30 -99 l18 -37 -51 -6 c-142 -19 -283 -142 -324 -284 -11 -36 -13 -39 -9 -12 3 19 10 93 15 163 6 71 17 159 25 195 8 37 24 110 35 163 11 52 29 121 39 152 22 64 154 338 181 377 10 14 32 52 50 85 43 82 113 195 120 195 3 0 11 -28 17 -62z m-472 -1448 c12 -55 65 -150 108 -191 48 -47 109 -83 165 -98 23 -7 42 -14 42 -17 0 -3 -11 -20 -23 -37 -84 -115 -80 -311 8 -414 l32 -38 -71 -1 c-59 0 -84 -6 -139 -32 -80 -37 -167 -116 -197 -179 -37 -80 -54 -176 -41 -240 23 -114 91 -213 186 -269 l42 -24 -43 -46 c-24 -25 -56 -71 -71 -102 -25 -51 -28 -68 -28 -157 0 -89 3 -106 27 -156 35 -70 81 -125 135 -159 l42 -27 -39 -32 c-90 -72 -135 -175 -135 -306 1 -111 21 -177 82 -262 42 -59 106 -108 182 -139 22 -9 21 -11 -20 -24 -105 -33 -174 -89 -229 -184 -137 -240 -10 -557 243 -607 57 -12 57 -12 52 -43 -8 -51 -43 -306 -50 -368 l-7 -57 -40 82 c-185 381 -291 683 -332 947 -53 341 -68 560 -67 995 0 486 25 866 90 1410 34 281 70 685 71 810 1 37 14 18 25 -35z"/>
</g>
</svg>