<?xml version="1.0" standalone="no"?>
<!DOCTYPE svg PUBLIC "-//W3C//DTD SVG 20010904//EN"
 "http://www.w3.org/TR/2001/REC-SVG-20010904/DTD/svg10.dtd">
 <svg version="1.0" xmlns="http://www.w3.org/2000/svg" width="40.000000px" height="60.000000px" viewBox="0 0 39.000000 100.000000" preserveAspectRatio="xMidYMid meet" class="sitting"><g transform="translate(0.000000,100.000000) scale(0.100000,-0.100000)" fill="#353334" stroke="none"><path d="M203 978 c-9 -11 -35 -78 -50 -128 -2 -9 -16 7 -34 40 -16 30 -37 62
-45 70 -14 13 -17 13 -30 -4 -22 -30 -17 -113 10 -171 15 -33 20 -57 15 -70
-16 -41 -10 -99 14 -129 23 -28 23 -29 5 -80 -9 -28 -17 -74 -18 -103 0 -36
-8 -66 -26 -100 -26 -50 -26 -46 -10 -176 7 -48 32 -75 88 -92 28 -8 68 -15
88 -15 47 0 124 39 128 65 1 11 9 49 17 85 14 61 14 72 -5 158 -20 98 -45 163
-81 213 -18 25 -19 34 -10 61 16 44 14 79 -7 119 -15 30 -16 40 -5 65 17 41
16 116 -3 164 -17 42 -25 48 -41 28z"></path></g></svg>
