<svg version="1.0" xmlns="http://www.w3.org/2000/svg" width="540.000000pt" height="652.000000pt" viewBox="0 0 540.000000 652.000000" preserveAspectRatio="xMidYMid meet">
<g transform="translate(0.000000,652.000000) scale(0.100000,-0.100000)" fill="#441C00" stroke="none">
<path d="M5295 6400 c-144 -125 -464 -311 -675 -393 -368 -142 -474 -179 -895 -312 -99 -32 -236 -80 -305 -107 -69 -28 -213 -82 -320 -120 -180 -65 -631 -253 -845 -352 -110 -52 -373 -197 -515 -284 -173 -106 -317 -214 -461 -344 -193 -175 -526 -521 -648 -673 -325 -404 -511 -819 -583 -1300 -17 -116 -17 -464 1 -565 35 -203 121 -483 192 -621 24 -49 25 -47 -29 -241 -69 -252 -86 -377 -87 -648 0 -157 4 -255 13 -295 12 -53 30 -113 38 -124 2 -2 39 -6 83 -8 95 -6 133 11 169 76 22 38 22 43 9 83 -45 133 -52 356 -19 548 40 226 43 243 55 256 7 7 23 29 37 48 14 19 31 38 38 40 36 15 320 47 492 56 691 36 1172 99 1534 201 60 17 128 39 150 49 23 10 119 52 213 93 280 121 489 264 802 547 291 263 678 777 833 1110 164 349 364 902 483 1335 159 577 239 1029 305 1724 11 118 23 231 26 252 4 22 3 39 -2 38 -5 0 -45 -31 -89 -69z m-130 -370 c-31 -125 -56 -242 -76 -365 -38 -237 -108 -566 -158 -749 -27 -100 -70 -261 -96 -359 -152 -588 -446 -1289 -708 -1686 -159 -242 -430 -570 -569 -690 -237 -204 -728 -495 -984 -584 -259 -90 -697 -154 -1179 -173 -228 -8 -618 29 -683 65 -17 9 101 247 217 439 113 187 350 518 452 631 257 286 765 666 1391 1040 42 25 141 80 220 121 79 41 195 106 258 144 173 104 504 326 600 402 119 95 510 489 606 609 274 345 553 799 663 1078 36 91 38 107 11 82 -11 -10 -20 -22 -20 -27 0 -4 -44 -71 -97 -148 -54 -77 -143 -206 -198 -287 -276 -408 -499 -659 -864 -972 -184 -158 -279 -228 -548 -404 -299 -196 -365 -235 -575 -336 -463 -223 -928 -518 -1279 -811 -197 -165 -473 -437 -609 -600 -188 -226 -290 -375 -402 -587 l-64 -123 -19 98 c-28 142 -26 386 4 552 61 341 132 567 259 824 138 281 209 394 396 626 162 202 351 386 612 596 191 154 475 318 800 463 259 115 417 173 706 261 128 39 312 101 408 137 175 65 575 239 829 359 188 89 478 259 601 352 58 43 106 78 107 78 1 -1 -5 -26 -12 -56z"/>
</g>
</svg>