<?xml version="1.0" standalone="no"?>
<!DOCTYPE svg PUBLIC "-//W3C//DTD SVG 20010904//EN"
 "http://www.w3.org/TR/2001/REC-SVG-20010904/DTD/svg10.dtd">
<svg version="1.0" xmlns="http://www.w3.org/2000/svg"
 width="2068.000000pt" height="1236.000000pt" viewBox="0 0 2068.000000 1236.000000"
 preserveAspectRatio="xMidYMid meet">
<g transform="translate(0.000000,1236.000000) scale(0.100000,-0.100000)"
fill="#353334" stroke="none">
<path d="M13294 12151 c-51 -26 -69 -52 -81 -116 -8 -41 -8 -191 -1 -230 4
-22 11 -58 14 -80 3 -22 11 -46 16 -52 6 -7 8 -13 5 -13 -8 0 32 -142 43 -155
5 -6 12 -26 15 -45 3 -19 10 -37 15 -40 5 -3 11 -15 13 -26 1 -12 11 -33 21
-48 9 -15 18 -36 19 -47 1 -10 4 -19 8 -19 4 0 10 -12 14 -27 3 -15 13 -43 22
-62 9 -20 18 -45 20 -56 2 -10 7 -22 11 -25 12 -7 26 -43 23 -57 -1 -7 3 -13
9 -13 5 0 10 -6 10 -13 0 -8 6 -27 14 -43 13 -25 36 -78 41 -94 17 -51 101
-215 126 -246 5 -6 10 -19 12 -30 5 -25 47 -113 58 -120 5 -3 9 -14 9 -25 0
-10 3 -19 8 -19 4 0 12 -10 18 -23 27 -54 80 -152 85 -157 5 -4 20 -37 23 -50
2 -5 14 -27 54 -95 12 -22 28 -52 35 -67 6 -16 15 -28 19 -28 4 0 8 -7 8 -15
0 -8 4 -15 8 -15 5 0 14 -16 22 -35 8 -19 17 -35 22 -35 4 0 8 -7 8 -15 0 -8
5 -15 10 -15 6 0 10 -7 10 -15 0 -8 5 -15 10 -15 6 0 10 -8 10 -18 0 -10 9
-28 20 -40 11 -12 20 -26 20 -32 0 -5 5 -10 10 -10 6 0 10 -6 10 -13 0 -7 9
-23 20 -35 11 -12 20 -24 20 -27 0 -3 13 -19 30 -36 16 -17 35 -44 42 -60 7
-16 16 -29 20 -29 5 0 8 -5 8 -10 0 -6 9 -20 20 -32 11 -12 26 -34 32 -50 7
-15 19 -28 26 -28 7 0 10 -5 7 -10 -3 -6 1 -13 9 -16 9 -3 14 -10 11 -14 -2
-4 10 -23 28 -41 18 -19 39 -43 47 -55 28 -39 95 -118 138 -160 23 -24 42 -46
42 -49 0 -3 20 -26 44 -50 24 -23 47 -52 50 -62 4 -11 16 -25 29 -32 12 -7 33
-28 47 -46 14 -19 31 -35 39 -35 8 0 12 -2 9 -5 -7 -7 111 -125 124 -125 5 0
6 -4 3 -10 -3 -5 1 -10 9 -10 8 0 26 -11 40 -25 14 -14 28 -25 31 -25 3 0 20
-15 38 -32 18 -18 51 -42 72 -53 22 -11 45 -25 52 -32 7 -6 23 -15 36 -19 12
-4 36 -17 53 -30 39 -30 121 -74 138 -74 20 0 110 -41 118 -54 6 -10 5 -35 -6
-91 -6 -31 -97 -248 -112 -265 -7 -8 -27 -51 -44 -95 -17 -44 -37 -87 -44 -95
-7 -8 -26 -46 -41 -85 -16 -38 -34 -77 -41 -85 -7 -8 -18 -26 -24 -40 -6 -14
-22 -43 -35 -65 -27 -45 -65 -124 -65 -135 0 -4 -9 -17 -20 -30 -11 -13 -20
-29 -20 -36 0 -7 -6 -19 -14 -27 -8 -7 -38 -72 -67 -143 -29 -71 -55 -131 -59
-134 -3 -3 -17 -23 -30 -45 -38 -62 -140 -175 -158 -175 -6 0 -12 -3 -14 -7
-4 -11 -68 -57 -103 -75 -16 -9 -64 -34 -107 -56 -42 -22 -79 -38 -82 -35 -3
3 -13 2 -23 -2 -10 -5 -27 -10 -37 -12 -11 -2 -25 -8 -33 -14 -7 -6 -19 -9
-28 -6 -8 4 -17 2 -20 -3 -4 -6 -17 -10 -30 -10 -13 0 -27 -5 -30 -10 -4 -6
-14 -10 -23 -9 -10 1 -25 -1 -34 -5 -9 -4 -25 -9 -35 -11 -10 -2 -18 -4 -18
-5 0 -1 -13 -4 -30 -6 -16 -2 -59 -8 -95 -14 -36 -6 -81 -13 -100 -15 -19 -2
-51 -7 -70 -10 -19 -3 -55 -8 -80 -10 -46 -5 -85 -12 -85 -15 0 -1 -18 -3 -40
-4 -22 -2 -40 -4 -40 -5 0 -1 -25 -4 -55 -6 -30 -2 -68 -6 -85 -9 -51 -8 -175
-17 -300 -22 -66 -3 -124 -5 -130 -5 -5 0 -147 2 -315 6 -339 6 -430 6 -540
-1 -84 -5 -258 -6 -555 -5 -110 1 -222 -1 -250 -3 -27 -3 -77 -8 -110 -11 -33
-4 -78 -9 -100 -12 -22 -3 -71 -6 -110 -8 -38 -2 -131 -6 -205 -10 -127 -6
-476 -12 -1045 -17 -225 -2 -319 2 -410 16 -16 3 -66 8 -110 11 -101 7 -166
14 -185 20 -8 2 -33 7 -55 10 -22 4 -51 8 -65 11 -14 2 -72 7 -130 9 -159 8
-324 24 -405 40 -11 2 -36 7 -55 9 -81 12 -131 22 -158 30 -9 3 -35 8 -57 11
-22 3 -49 8 -60 10 -11 2 -33 6 -50 10 -39 7 -74 14 -102 20 -13 3 -33 7 -45
10 -13 2 -41 9 -64 14 -23 6 -59 13 -80 16 -21 4 -50 8 -64 11 -14 3 -36 7
-50 10 -61 12 -117 15 -300 19 -211 3 -337 -7 -427 -36 -18 -6 -37 -8 -42 -5
-5 4 -12 2 -15 -3 -3 -4 -25 -12 -48 -16 -52 -9 -51 -9 -108 -26 -25 -7 -52
-14 -60 -15 -8 -1 -37 -9 -64 -19 -26 -9 -58 -18 -69 -21 -11 -2 -40 -13 -64
-24 -23 -11 -62 -24 -86 -30 -25 -5 -57 -15 -73 -21 -16 -7 -33 -11 -38 -10
-5 1 -28 -7 -51 -18 -79 -37 -106 -36 -180 11 -33 21 -125 119 -125 133 0 7
-6 15 -13 18 -7 2 -21 22 -32 43 -11 22 -22 41 -25 44 -3 3 -17 28 -30 55 -14
28 -27 52 -30 55 -10 10 -30 50 -30 61 0 6 -8 23 -19 37 -10 15 -26 50 -36 77
-10 28 -21 55 -25 60 -10 15 -45 108 -45 120 0 9 -65 143 -84 175 -20 31 -24
49 -41 160 -14 89 -27 108 -61 88 -28 -16 -49 -34 -49 -43 0 -3 -11 -18 -25
-33 -14 -15 -25 -32 -25 -39 0 -6 -6 -18 -14 -26 -17 -16 -48 -88 -42 -94 2
-3 -2 -20 -10 -39 -30 -72 -37 -385 -11 -454 4 -8 16 -42 28 -75 28 -79 90
-205 100 -205 5 0 9 -5 9 -11 0 -7 16 -27 35 -46 19 -18 35 -37 35 -41 0 -19
13 -78 19 -87 3 -5 6 -17 6 -25 1 -8 9 -32 18 -54 9 -21 17 -40 17 -43 0 -21
163 -224 198 -246 6 -4 12 -12 12 -18 0 -8 -34 -50 -77 -95 -7 -7 -13 -15 -13
-18 0 -7 -60 -96 -77 -114 -7 -7 -13 -17 -13 -22 0 -4 -13 -22 -30 -40 -31
-33 -51 -65 -71 -112 -6 -16 -15 -28 -19 -28 -5 0 -12 -10 -16 -22 -3 -12 -10
-26 -15 -32 -42 -50 -49 -61 -49 -73 0 -7 -4 -13 -9 -13 -5 0 -15 -16 -21 -35
-6 -19 -15 -35 -19 -35 -4 0 -25 -42 -45 -92 -21 -51 -42 -95 -46 -98 -11 -7
-169 -393 -187 -455 -15 -55 -20 -76 -28 -117 -3 -16 -7 -40 -10 -55 -3 -16
-8 -46 -11 -67 -3 -22 -9 -47 -14 -55 -9 -19 -21 -85 -25 -149 -2 -26 -11 -79
-19 -117 -8 -39 -17 -109 -21 -155 -3 -47 -8 -101 -11 -120 -3 -19 -7 -60 -9
-90 -2 -30 -7 -68 -9 -85 -3 -16 -8 -64 -10 -105 -3 -41 -9 -92 -14 -113 -6
-23 -6 -39 0 -43 10 -7 1 -58 -16 -88 -6 -11 -26 -35 -43 -53 -18 -19 -33 -39
-33 -46 0 -7 -17 -25 -37 -42 -20 -16 -53 -46 -72 -65 -20 -20 -52 -47 -71
-60 -19 -13 -41 -30 -49 -38 -27 -27 -211 -142 -226 -142 -8 0 -15 -4 -15 -9
0 -5 -10 -13 -22 -16 -27 -7 -129 -54 -208 -95 -60 -30 -206 -73 -290 -84
-108 -15 -359 -31 -595 -39 -101 -4 -178 -27 -210 -65 -11 -13 -30 -34 -42
-47 -13 -13 -23 -26 -23 -29 0 -10 -90 -96 -100 -96 -6 0 -10 -6 -10 -13 0 -7
-11 -24 -25 -39 -14 -15 -25 -32 -25 -38 0 -6 -4 -8 -10 -5 -5 3 -10 0 -10 -7
0 -7 -11 -25 -25 -40 -14 -15 -25 -32 -25 -38 0 -6 -4 -8 -10 -5 -5 3 -10 1
-10 -5 0 -6 -10 -21 -22 -34 -13 -12 -32 -35 -43 -51 -11 -15 -35 -43 -53 -61
-17 -18 -32 -36 -32 -40 0 -3 -13 -19 -30 -34 -16 -15 -30 -30 -30 -33 0 -14
-280 -281 -280 -268 0 3 -7 -3 -15 -13 -8 -11 -15 -17 -15 -13 0 3 -18 -10
-40 -31 -21 -20 -69 -64 -105 -97 -37 -33 -82 -75 -100 -92 -19 -18 -39 -33
-45 -33 -5 0 -10 -4 -10 -10 0 -5 -5 -10 -11 -10 -7 0 -21 -11 -33 -24 -25
-29 -58 -54 -181 -133 -49 -31 -96 -63 -103 -70 -7 -7 -24 -16 -38 -19 -13 -3
-24 -10 -24 -15 0 -5 -7 -9 -15 -9 -8 0 -15 -4 -15 -10 0 -5 -9 -10 -20 -10
-11 0 -20 -4 -20 -10 0 -5 -6 -10 -14 -10 -8 0 -16 -4 -18 -8 -3 -8 -110 -62
-123 -62 -4 0 -20 -9 -36 -21 -16 -11 -29 -18 -29 -15 0 2 -24 -4 -53 -14 -28
-10 -71 -21 -95 -24 -24 -3 -49 -9 -55 -13 -7 -4 -19 -8 -27 -9 -32 -2 -96
-16 -116 -25 -11 -6 -24 -9 -30 -8 -5 2 -26 -5 -47 -14 -20 -9 -56 -16 -80
-15 -23 0 -45 -1 -49 -2 -5 -1 -12 -4 -18 -5 -5 -1 -11 -4 -12 -5 -2 -2 -19
-4 -38 -6 -52 -4 -80 -15 -80 -30 0 -8 -4 -14 -9 -14 -5 0 -14 -15 -21 -32 -7
-18 -23 -44 -35 -58 -18 -20 -21 -31 -14 -55 9 -34 59 -92 104 -121 16 -10 40
-28 53 -39 30 -26 156 -76 207 -82 38 -5 151 -6 205 -2 14 0 30 5 36 10 6 5
19 10 30 12 18 4 27 7 72 24 9 3 19 7 22 7 15 4 126 62 128 69 2 4 12 7 23 7
10 0 19 5 19 10 0 6 7 10 15 10 8 0 15 5 15 10 0 6 7 10 15 10 8 0 15 5 15 11
0 5 4 8 8 5 5 -3 20 6 35 20 14 13 31 24 37 24 5 0 10 5 10 10 0 6 6 10 13 10
8 0 22 9 32 20 10 11 24 20 32 20 7 0 13 5 13 10 0 6 6 10 13 10 6 0 28 14 47
30 19 16 41 30 48 30 6 0 12 5 12 10 0 6 6 10 14 10 8 0 16 4 18 9 2 5 17 17
34 27 66 40 144 97 144 106 0 5 4 7 9 4 5 -3 12 1 15 10 4 9 9 14 12 12 3 -3
20 9 38 28 18 19 38 34 45 34 6 0 11 5 11 10 0 6 7 10 15 10 8 0 15 5 15 10 0
6 6 10 14 10 8 0 16 4 18 8 2 5 25 23 53 42 61 42 81 58 117 92 15 14 28 25
28 23 0 -2 10 5 23 16 12 10 45 36 73 56 66 49 132 103 155 127 11 11 19 17
19 13 0 -3 15 10 34 28 18 19 38 35 45 35 6 0 11 4 11 8 0 4 13 16 30 25 16
10 35 23 42 30 7 7 36 28 63 47 28 19 52 38 55 41 4 5 60 40 165 102 17 10 38
21 48 24 9 3 17 9 17 14 0 5 5 9 10 9 6 0 29 9 53 19 23 11 58 23 77 27 42 9
48 11 58 14 4 1 11 2 16 1 6 -1 19 2 30 7 42 19 124 39 201 48 28 3 64 7 80 9
17 2 77 7 135 10 237 13 287 16 330 20 25 3 128 7 230 10 225 5 385 14 580 29
19 1 49 5 65 9 17 3 47 9 68 12 20 3 54 7 75 10 20 3 62 11 92 17 30 6 63 11
72 9 10 -1 26 2 36 8 10 5 41 13 68 17 27 3 53 9 59 12 5 3 21 7 36 9 15 1 39
8 55 14 16 7 35 11 42 10 8 -1 19 2 25 7 7 5 34 13 61 17 27 3 56 11 65 15 16
9 112 40 134 44 7 1 23 9 37 18 14 9 42 22 63 29 20 7 37 16 37 20 0 4 10 10
23 14 12 4 24 8 27 9 39 17 79 33 150 58 47 16 89 34 95 39 5 5 15 9 23 9 8 0
26 8 40 19 15 10 38 22 52 26 13 4 30 14 38 21 7 8 20 14 28 14 8 0 14 5 14
10 0 6 7 10 15 10 8 0 15 4 15 9 0 5 13 12 30 16 16 4 30 10 30 13 0 4 20 20
45 35 25 16 45 33 45 38 0 5 5 9 11 9 7 0 19 8 28 18 9 9 32 28 51 42 54 38
87 68 187 170 51 52 96 98 101 103 4 4 48 47 97 95 50 48 108 112 130 142 22
30 52 68 68 84 15 16 27 32 27 36 0 4 11 20 25 36 14 16 25 32 25 35 0 3 8 15
18 27 9 11 26 32 36 47 18 23 34 44 65 81 5 6 12 20 15 32 4 12 12 22 17 22 5
0 9 6 9 14 0 7 16 28 35 47 19 19 35 38 35 42 0 5 6 15 13 22 28 32 37 45 37
52 0 12 49 63 60 63 5 0 7 -8 3 -17 -8 -23 -83 -154 -97 -170 -23 -26 -32 -39
-43 -65 -15 -33 2 -43 39 -24 22 11 70 24 103 27 6 0 16 5 23 11 6 6 12 8 12
4 0 -3 10 -2 23 3 12 5 49 12 82 16 32 3 63 9 67 11 8 5 60 14 113 19 17 2 32
4 35 5 3 1 19 3 35 5 17 1 32 3 35 5 3 1 37 4 75 6 39 2 99 6 135 9 87 9 511
9 580 0 30 -3 96 -8 145 -11 50 -2 124 -6 165 -9 41 -2 120 -7 175 -9 55 -3
123 -10 150 -16 28 -7 57 -13 65 -15 8 -2 35 -8 60 -15 25 -6 54 -12 65 -14
11 -2 34 -9 50 -16 28 -11 41 -14 99 -24 14 -2 29 -7 34 -10 6 -3 38 -12 73
-20 35 -8 89 -22 119 -31 63 -19 80 -22 135 -30 22 -3 58 -12 80 -20 22 -8 57
-17 78 -20 21 -3 51 -12 67 -20 16 -8 33 -14 37 -13 13 3 87 -14 107 -24 10
-6 28 -12 40 -14 11 -2 32 -5 46 -8 14 -2 39 -10 55 -16 17 -7 39 -14 50 -16
11 -1 45 -10 75 -19 46 -13 102 -27 200 -50 8 -2 33 -8 55 -13 151 -39 195
-51 203 -56 5 -3 22 -8 38 -11 16 -2 41 -7 55 -10 15 -3 43 -12 63 -20 20 -8
36 -13 36 -10 0 2 12 0 28 -6 15 -6 36 -12 47 -14 11 -2 31 -6 45 -8 14 -3 37
-10 53 -16 15 -6 27 -8 27 -6 0 2 12 0 28 -6 29 -12 51 -16 122 -25 25 -3 61
-10 80 -16 19 -7 42 -13 50 -14 15 -3 39 -8 90 -18 14 -3 41 -8 60 -11 19 -2
46 -8 60 -11 14 -4 32 -8 40 -10 8 -2 26 -6 40 -9 14 -2 41 -7 60 -10 19 -2
46 -7 60 -11 32 -8 55 -12 105 -19 118 -16 163 -21 260 -29 44 -4 87 -9 95
-11 20 -6 92 -15 165 -20 33 -3 89 -8 125 -11 119 -11 243 -15 425 -15 204 0
266 5 405 33 30 6 62 12 70 14 16 3 126 30 138 34 4 1 12 4 17 5 6 2 47 14 93
29 46 14 88 26 94 26 5 0 24 6 41 14 18 7 59 22 92 32 33 10 63 23 66 27 3 5
9 8 13 8 10 -2 96 41 102 50 3 5 12 9 20 9 9 0 40 11 70 25 30 14 59 25 63 25
5 0 11 4 13 8 4 10 86 49 122 58 14 3 26 10 26 15 0 5 5 9 10 9 11 0 53 20
114 53 27 14 32 14 90 -11 33 -14 63 -29 66 -34 9 -12 322 -140 353 -144 15
-2 37 -9 49 -15 11 -6 31 -13 44 -15 13 -2 34 -6 47 -9 12 -2 38 -7 57 -10 76
-11 106 -16 130 -20 168 -30 658 -25 845 8 38 7 137 18 190 22 74 4 200 21
200 25 0 1 14 3 30 5 17 1 30 3 30 5 0 1 14 4 30 5 17 2 53 6 80 10 28 3 68 8
90 10 22 1 56 6 75 10 19 4 55 8 80 10 25 2 45 4 45 5 0 3 188 10 295 12 36 0
82 -2 102 -6 21 -4 59 -9 85 -10 92 -6 223 -39 223 -55 0 -4 17 -13 38 -20 20
-8 48 -22 61 -32 13 -11 28 -19 33 -19 5 0 14 -5 21 -10 48 -41 62 -50 74 -50
7 0 13 -4 13 -9 0 -5 12 -14 28 -20 15 -7 43 -22 63 -34 20 -12 60 -35 88 -52
28 -16 51 -33 51 -37 0 -5 5 -8 11 -8 6 0 28 -12 48 -27 48 -37 72 -52 94 -59
9 -4 17 -10 17 -14 0 -4 14 -13 30 -20 17 -7 30 -16 30 -21 0 -5 6 -9 13 -9 8
0 27 -11 43 -25 16 -14 32 -25 36 -25 4 0 13 -6 20 -13 25 -23 113 -79 193
-121 17 -9 48 -27 70 -40 22 -14 56 -32 75 -41 19 -9 37 -19 40 -23 10 -13
128 -72 145 -72 9 0 73 -23 143 -52 108 -44 136 -52 192 -52 44 0 76 6 100 18
24 13 59 19 111 20 72 2 80 4 115 36 22 18 42 38 46 44 8 14 -44 121 -78 161
-52 61 -91 101 -118 120 -16 11 -34 26 -41 32 -8 7 -17 13 -22 13 -4 0 -21 12
-38 27 -30 28 -77 56 -202 117 -39 20 -78 42 -85 49 -7 7 -33 21 -58 31 -25
10 -52 24 -60 31 -8 7 -25 16 -37 19 -13 4 -23 11 -23 16 0 5 -16 14 -35 20
-19 6 -35 15 -35 19 0 5 -20 16 -45 25 -25 10 -45 22 -45 27 0 5 -6 9 -14 9
-8 0 -21 7 -30 15 -8 8 -25 20 -38 25 -13 6 -41 21 -63 35 -22 13 -53 31 -70
40 -34 18 -48 26 -126 77 -31 21 -63 43 -70 51 -8 7 -29 19 -46 26 -18 7 -33
17 -33 21 0 4 -18 13 -40 20 -22 7 -40 17 -40 21 0 4 -20 15 -45 25 -25 9 -45
20 -45 25 0 4 -10 11 -22 15 -12 3 -28 13 -36 20 -7 8 -20 14 -28 14 -8 0 -14
4 -14 9 0 5 -16 15 -35 22 -19 7 -35 16 -35 20 0 4 -13 12 -30 19 -16 7 -30
16 -30 21 0 5 -6 9 -14 9 -8 0 -21 6 -28 13 -7 7 -28 19 -45 26 -18 7 -33 17
-33 22 0 5 -6 9 -13 9 -8 0 -24 9 -37 20 -13 11 -28 20 -33 20 -6 0 -18 6 -26
14 -19 17 -186 87 -221 93 -110 18 -326 22 -455 9 -77 -8 -137 -13 -265 -21
-47 -3 -116 -8 -155 -11 -38 -3 -80 -5 -93 -5 -13 1 -40 -7 -60 -17 -25 -11
-55 -16 -90 -14 l-54 3 7 42 c13 82 27 91 157 102 31 3 67 9 81 14 14 5 27 7
31 4 3 -3 12 -3 21 0 22 9 20 9 72 19 45 9 77 15 113 23 8 2 15 4 15 5 0 3 38
10 75 14 51 6 107 16 175 31 74 17 152 28 185 27 59 -3 133 -14 182 -28 29 -8
62 -16 73 -18 11 -2 53 -17 94 -35 40 -17 87 -34 104 -36 16 -3 38 -10 47 -15
9 -5 30 -12 46 -15 41 -7 63 -12 114 -25 25 -6 54 -12 65 -14 11 -2 32 -9 48
-15 15 -6 27 -8 27 -6 0 2 12 0 28 -6 15 -6 41 -13 58 -15 16 -2 73 -13 125
-24 52 -11 103 -22 115 -24 11 -1 26 -6 32 -10 14 -8 183 -43 247 -50 54 -6
66 -8 135 -26 25 -6 55 -13 66 -15 12 -1 30 -8 41 -14 11 -5 23 -8 26 -5 2 3
22 -2 42 -11 21 -8 40 -13 43 -11 2 3 19 -2 36 -11 55 -29 323 -34 406 -8 10
3 30 23 45 45 15 22 30 39 34 38 32 -7 174 70 192 104 6 11 8 31 5 44 -9 34
-101 129 -156 161 -25 14 -47 29 -50 33 -7 9 -298 126 -335 135 -34 9 -59 13
-97 19 -15 2 -32 7 -39 12 -7 4 -22 9 -33 11 -12 1 -32 5 -46 7 -14 2 -38 9
-54 15 -16 7 -31 9 -34 7 -2 -3 -14 0 -25 6 -11 6 -41 12 -67 14 -26 2 -67 8
-91 14 -24 6 -54 13 -66 15 -13 3 -33 7 -45 10 -13 2 -43 9 -68 15 -25 7 -53
13 -63 15 -10 2 -26 6 -35 9 -9 3 -37 8 -62 11 -25 4 -65 11 -90 17 -25 6 -56
12 -70 15 -14 2 -36 6 -50 9 -14 3 -34 7 -45 9 -11 2 -42 12 -68 24 -27 11
-60 23 -75 26 -14 2 -49 13 -77 23 -48 18 -91 33 -192 68 -27 9 -100 36 -163
59 -63 24 -131 48 -150 55 -37 13 -174 17 -225 6 -16 -3 -41 -8 -55 -11 -14
-2 -38 -8 -55 -12 -16 -4 -38 -8 -47 -9 -10 -1 -19 -2 -20 -3 -2 -2 -32 -4
-67 -7 -35 -2 -70 -9 -77 -15 -8 -6 -14 -9 -14 -6 0 3 -36 -3 -80 -13 -44 -10
-83 -18 -85 -19 -3 -1 -6 -1 -7 -2 -18 -5 -125 -19 -193 -25 -27 -3 -71 -7
-97 -9 -37 -3 -48 -1 -49 10 -1 8 -2 18 -3 23 -3 10 -20 95 -22 107 -1 6 -3
12 -4 15 -3 9 -7 34 -13 80 -4 25 -9 56 -12 70 -3 14 -7 45 -10 69 -2 24 -7
52 -11 63 -9 29 -13 66 -20 193 -14 242 0 411 43 520 9 22 17 49 19 60 4 30
78 201 118 275 20 36 43 82 52 103 9 20 20 37 25 37 5 0 9 6 9 13 0 12 9 26
50 74 5 7 10 15 10 18 0 3 13 20 30 38 16 18 30 35 30 39 0 4 21 29 48 57 26
28 68 73 95 101 26 28 47 48 47 44 0 -5 7 1 15 12 8 10 15 16 15 12 0 -4 13 5
28 20 32 30 127 111 151 128 21 15 150 85 153 83 2 -1 21 6 43 15 22 10 54 20
70 23 17 3 35 9 40 13 6 4 44 19 85 33 41 14 93 34 115 43 22 10 42 18 45 19
3 1 22 9 44 18 21 9 40 17 43 17 18 0 140 96 182 144 14 16 36 39 49 52 12 13
22 28 22 34 0 5 4 10 9 10 5 0 21 30 36 68 26 65 31 82 39 147 6 45 26 234 28
265 1 8 18 55 38 104 33 78 37 97 34 155 -5 78 -11 156 -14 156 -1 0 -3 11 -4
25 -5 43 -18 74 -41 95 -75 69 -96 85 -105 85 -5 0 -10 4 -10 9 0 14 -265 116
-330 128 -43 7 -153 34 -162 39 -5 3 -19 7 -31 9 -12 2 -42 9 -67 15 -25 7
-56 14 -70 16 -68 12 -140 27 -190 41 -177 47 -273 72 -304 79 -36 7 -106 37
-106 45 0 4 -10 11 -22 15 -13 4 -25 10 -28 13 -19 25 -197 107 -254 117 -16
3 -34 8 -39 11 -6 3 -22 8 -36 10 -14 2 -37 6 -51 9 -123 23 -181 28 -355 27
-183 0 -309 -9 -408 -27 -32 -6 -41 8 -52 79 -4 28 -10 55 -15 60 -6 8 -14 39
-24 95 -1 3 -4 10 -7 15 -4 6 -10 28 -14 50 -10 46 -9 44 -19 67 -4 9 -9 22
-10 30 -2 7 -6 20 -9 28 -3 8 -13 40 -22 70 -10 30 -21 59 -26 65 -5 5 -9 16
-9 25 0 8 -7 28 -15 44 -9 16 -17 37 -19 45 -2 9 -8 29 -14 44 -7 16 -12 34
-12 41 0 6 -4 16 -8 22 -5 5 -15 25 -22 44 -7 19 -21 46 -30 60 -9 14 -25 47
-35 74 -19 48 -43 98 -102 206 -55 99 -75 135 -85 148 -6 6 -7 12 -2 12 5 0 2
6 -6 13 -20 16 -50 71 -50 91 0 9 -4 16 -10 16 -5 0 -10 4 -10 10 0 5 -6 18
-14 27 -8 10 -52 70 -97 133 -45 63 -86 116 -90 118 -5 2 -9 10 -9 18 0 8 -4
14 -10 14 -5 0 -10 6 -10 14 0 8 -4 16 -8 18 -5 2 -28 32 -52 68 -24 36 -52
72 -62 81 -10 9 -18 24 -18 33 0 9 -9 21 -20 28 -11 7 -20 18 -20 25 0 7 -4
13 -10 13 -5 0 -10 5 -10 10 0 6 -9 19 -20 30 -11 11 -20 28 -20 38 0 10 -9
24 -20 32 -11 8 -20 20 -20 27 0 7 -4 13 -10 13 -5 0 -10 7 -10 15 0 8 -4 15
-10 15 -5 0 -10 4 -10 10 0 5 -13 23 -29 39 -16 16 -37 44 -47 60 -10 17 -22
31 -26 31 -4 0 -8 4 -8 10 0 12 -22 40 -80 101 -25 26 -67 73 -95 105 -27 31
-58 64 -69 73 -10 9 -48 44 -85 78 -36 34 -76 71 -88 82 -12 12 -25 21 -29 21
-3 0 -19 14 -34 30 -15 17 -31 30 -35 30 -3 0 -12 6 -19 13 -7 6 -35 30 -61
52 -26 22 -58 50 -71 63 -13 12 -27 22 -32 22 -5 0 -19 9 -32 20 -13 11 -29
20 -37 20 -8 0 -11 5 -8 10 3 6 1 10 -5 10 -6 0 -18 6 -25 13 -33 29 -45 37
-55 37 -5 0 -10 4 -10 9 0 5 -16 15 -35 22 -19 7 -35 16 -35 20 0 4 -37 22
-81 40 -126 50 -203 47 -275 -12 -11 -9 -100 29 -134 58 -9 7 -34 15 -55 18
-22 3 -44 7 -50 9 -5 1 -24 -5 -41 -13z"/>
<path d="M3170 3660 c-14 -4 -34 -12 -45 -17 -64 -32 -175 -75 -175 -68 0 3
-12 -2 -27 -12 -14 -9 -33 -18 -41 -20 -15 -2 -47 -16 -123 -54 -20 -10 -38
-16 -41 -13 -3 3 -21 -4 -39 -15 -19 -12 -41 -21 -51 -21 -9 0 -18 -3 -20 -7
-4 -10 -121 -68 -130 -65 -5 1 -8 -2 -8 -8 0 -6 -3 -9 -7 -8 -11 3 -107 -44
-111 -54 -2 -4 -8 -8 -13 -8 -4 0 -33 -11 -63 -25 -30 -14 -62 -25 -70 -25 -9
0 -16 -3 -16 -8 0 -4 -15 -13 -32 -21 -86 -37 -125 -54 -143 -63 -12 -5 -27
-10 -35 -12 -8 -1 -44 -16 -80 -33 -75 -34 -208 -82 -248 -89 -15 -2 -38 -9
-52 -14 -14 -5 -37 -12 -52 -14 -15 -3 -33 -8 -40 -13 -7 -4 -15 -8 -18 -8
-25 -4 -79 -18 -95 -25 -17 -7 -65 -18 -100 -21 -5 -1 -17 -5 -25 -9 -9 -5
-34 -11 -55 -14 -22 -3 -60 -8 -85 -11 -25 -4 -46 -10 -48 -15 -2 -4 -17 -6
-33 -3 -17 2 -37 -1 -45 -8 -8 -6 -14 -9 -14 -6 0 3 -17 1 -37 -4 -101 -23
-343 -31 -507 -16 -57 5 -76 2 -112 -15 -24 -11 -44 -23 -45 -27 -10 -119 -9
-140 10 -177 11 -21 23 -57 26 -79 8 -48 48 -115 69 -115 3 0 17 -10 31 -22
32 -28 124 -65 178 -73 39 -5 128 -15 152 -16 14 -1 170 10 170 11 0 1 41 3
90 5 92 4 114 7 169 24 17 6 49 13 71 16 22 3 44 10 49 15 6 6 20 10 31 10 12
0 25 3 29 8 4 4 11 7 14 8 25 3 70 19 90 30 12 8 22 12 22 8 0 -4 7 -1 15 6 8
7 15 9 15 4 0 -4 7 1 15 12 8 10 15 15 15 10 0 -5 7 -3 15 4 8 7 15 10 15 7 0
-6 161 75 185 92 6 4 33 16 60 26 28 10 78 31 113 47 34 15 65 28 68 28 3 0
20 6 37 14 30 13 124 45 150 50 7 2 23 8 37 14 67 28 85 35 90 36 3 1 10 4 16
8 6 4 21 9 35 12 13 2 49 13 79 22 66 21 55 18 110 28 25 5 50 12 55 16 6 4
28 11 50 15 39 8 47 10 63 15 16 5 450 1 497 -5 28 -3 77 -8 110 -10 33 -2 71
-6 85 -9 14 -3 41 -7 60 -10 19 -3 46 -8 60 -10 28 -6 190 -19 205 -18 6 1 42
3 80 6 39 2 70 5 70 6 0 1 37 3 81 5 80 3 154 21 154 37 0 4 6 8 13 8 6 1 30
9 52 20 22 10 43 16 47 14 5 -3 8 -2 8 3 0 9 48 33 67 33 7 0 13 5 13 10 0 6
6 10 13 10 11 0 90 52 107 70 3 3 17 11 33 19 15 8 27 18 27 23 0 4 6 8 13 8
7 0 19 9 27 20 8 11 20 20 27 20 7 0 13 5 13 10 0 6 7 10 15 10 8 0 15 4 15 8
0 4 12 15 28 24 49 29 112 87 180 163 37 42 53 123 32 160 -3 6 -5 24 -5 40 0
17 -4 33 -8 36 -5 3 -32 -5 -60 -19 -102 -49 -113 -51 -270 -57 -67 -3 -133
-8 -147 -11 -19 -4 -274 -16 -335 -15 -48 0 -278 12 -305 15 -107 13 -140 18
-185 27 -27 6 -61 13 -74 15 -14 3 -57 21 -95 41 -39 19 -80 37 -91 39 -11 2
-36 7 -55 12 -19 5 -46 6 -60 2z"/>
</g>
</svg>
