<svg version="1.0" xmlns="http://www.w3.org/2000/svg" width="436.000000pt" height="859.000000pt" viewBox="0 0 436.000000 859.000000" preserveAspectRatio="xMidYMid meet">
<g transform="translate(0.000000,859.000000) scale(0.100000,-0.100000)" fill="#441C00" stroke="none">
<path d="M84 8493 c-15 -15 -16 -31 -10 -123 3 -58 12 -129 20 -158 24 -84 75 -173 133 -229 43 -41 57 -63 68 -105 8 -29 19 -54 25 -56 5 -2 10 -11 10 -21 0 -18 44 -87 72 -112 10 -9 18 -20 18 -24 0 -4 8 -14 18 -21 16 -12 16 -13 -4 -14 -33 0 -71 -52 -45 -62 10 -3 20 -21 125 -215 38 -70 73 -129 78 -131 4 -2 8 -8 8 -13 0 -5 16 -32 35 -59 l35 -50 -29 0 c-53 0 -44 -66 27 -186 16 -28 33 -61 37 -72 3 -12 11 -22 16 -22 5 0 9 -6 9 -14 0 -15 39 -108 49 -116 3 -3 19 -30 34 -60 37 -73 64 -117 107 -171 38 -48 137 -146 153 -152 6 -2 5 -11 -3 -23 -16 -27 -6 -69 24 -99 12 -12 35 -42 49 -66 15 -24 47 -71 72 -104 24 -33 54 -77 65 -97 11 -20 24 -39 29 -42 5 -3 19 -25 31 -48 12 -24 27 -48 33 -53 7 -6 20 -26 31 -45 10 -19 24 -40 30 -45 14 -13 33 -43 45 -72 6 -12 16 -25 23 -30 7 -4 20 -17 28 -27 14 -18 13 -18 -10 -11 -14 4 -28 12 -32 18 -8 13 -122 23 -116 11 2 -5 10 -24 17 -41 7 -18 17 -33 22 -33 5 0 9 -7 9 -15 0 -7 6 -18 13 -22 16 -9 49 -68 138 -243 35 -69 66 -127 69 -130 4 -3 16 -30 29 -60 13 -30 29 -64 36 -75 7 -12 25 -52 40 -90 41 -102 105 -203 179 -282 16 -18 28 -35 25 -37 -3 -3 -32 8 -65 24 -33 15 -77 32 -97 35 -33 7 -37 5 -37 -15 0 -21 17 -60 30 -70 20 -15 84 -128 125 -220 26 -58 53 -112 60 -120 7 -8 25 -40 39 -70 67 -140 153 -299 172 -318 19 -19 28 -56 15 -60 -16 -5 -14 -40 10 -134 12 -46 25 -103 29 -128 28 -156 43 -230 55 -265 36 -105 76 -209 84 -219 5 -6 19 -36 32 -66 13 -30 36 -74 51 -96 15 -23 28 -46 28 -52 0 -5 7 -15 15 -22 21 -17 19 -25 -10 -38 -24 -11 -25 -15 -25 -109 0 -107 14 -245 50 -478 10 -63 34 -149 55 -200 7 -16 21 -52 30 -80 24 -65 80 -170 116 -216 16 -20 29 -40 29 -43 0 -9 68 -94 117 -147 23 -24 54 -60 69 -79 16 -19 33 -40 39 -46 5 -6 19 -23 30 -38 11 -15 32 -41 47 -58 15 -17 31 -41 34 -52 4 -12 12 -28 19 -36 7 -8 23 -46 35 -85 13 -38 27 -74 31 -80 4 -5 10 -30 14 -55 3 -25 8 -58 11 -75 10 -66 25 -292 34 -490 9 -218 18 -293 39 -319 23 -27 68 -30 106 -6 19 12 35 23 35 24 0 2 11 34 25 72 14 38 30 112 36 164 14 128 25 183 48 233 10 23 29 76 42 117 13 41 27 77 31 80 4 4 17 32 27 63 11 32 28 70 38 85 10 15 27 44 37 64 10 20 25 39 32 42 8 3 14 11 14 18 0 21 131 143 180 168 24 12 49 27 56 34 6 6 37 31 68 55 113 89 215 257 235 390 21 137 4 459 -28 518 -5 10 -22 71 -36 136 -15 64 -31 117 -36 117 -5 0 -9 15 -9 33 0 17 -7 67 -15 110 -8 43 -15 94 -15 113 0 19 -4 34 -9 34 -5 0 -16 3 -24 6 -9 3 -25 -4 -36 -15 -12 -12 -21 -18 -22 -13 -1 4 -2 57 -4 117 -4 126 -26 232 -85 415 -45 138 -52 167 -61 259 -6 54 -16 102 -23 110 -18 17 -55 5 -65 -22 -6 -16 -12 -2 -25 59 -10 43 -25 111 -33 149 -9 39 -21 81 -29 95 -7 14 -20 50 -28 80 -36 122 -40 135 -46 145 -4 6 -17 75 -30 155 -12 80 -26 153 -31 162 -5 10 -9 74 -9 143 0 124 0 126 -25 137 -22 10 -29 8 -49 -11 l-24 -22 -5 38 c-3 21 -10 54 -16 73 -6 19 -22 78 -36 130 -14 52 -29 97 -33 100 -4 3 -18 39 -31 80 -13 41 -39 107 -57 147 -19 39 -34 78 -34 87 0 9 -4 16 -9 16 -5 0 -19 26 -31 58 -12 31 -30 75 -40 97 -10 22 -28 70 -40 108 -12 37 -26 67 -31 67 -5 0 -9 9 -9 20 0 42 -34 156 -51 173 -26 24 -48 21 -55 -8 -9 -36 -17 -31 -39 21 -11 26 -24 52 -30 58 -5 6 -18 26 -29 45 -24 43 -85 128 -113 158 -13 13 -28 33 -34 46 -7 12 -18 29 -25 37 -20 22 -94 110 -139 165 -22 26 -48 56 -57 66 -16 17 -96 151 -128 214 -19 39 -65 47 -75 14 -8 -24 -3 -31 -51 76 -10 22 -26 48 -35 58 -8 9 -22 29 -30 44 -8 15 -21 35 -29 44 -8 10 -19 24 -25 31 -23 32 -123 146 -162 187 -24 24 -43 48 -43 53 0 8 -70 100 -90 118 -3 3 -19 28 -35 55 -16 28 -35 56 -42 63 -7 8 -20 27 -28 42 -17 32 -42 44 -77 35 -19 -5 -25 0 -37 27 -7 18 -79 96 -160 175 -176 172 -150 145 -212 221 -58 72 -76 83 -95 57 -16 -21 -14 -22 -57 37 -36 51 -127 132 -169 150 -15 7 -28 16 -28 20 0 5 -7 8 -15 8 -8 0 -15 5 -15 10 0 6 -7 10 -16 10 -18 0 -144 86 -157 107 -12 20 -35 16 -48 -9 -10 -18 -13 -20 -17 -8 -13 37 -152 130 -195 130 -7 0 -17 4 -22 8 -14 12 -77 28 -163 42 -40 7 -79 18 -87 26 -8 8 -30 21 -49 29 -31 13 -36 13 -52 -2z m441 -569 c79 -86 83 -92 90 -131 3 -15 8 -43 11 -60 3 -18 2 -33 -2 -33 -20 0 -123 108 -144 150 -12 25 -26 53 -31 62 -11 22 -12 88 -1 88 4 0 39 -34 77 -76z m392 7 c78 -52 101 -76 141 -138 32 -50 33 -54 23 -105 -6 -29 -12 -65 -14 -81 -2 -15 -6 -28 -10 -28 -44 -5 -131 100 -163 196 -10 28 -23 59 -30 70 -16 26 -29 125 -16 125 5 0 36 -18 69 -39z m571 -567 c17 -20 32 -39 32 -41 0 -6 55 -88 63 -94 5 -3 14 -26 21 -50 15 -49 9 -80 -37 -192 l-23 -58 -40 30 c-44 34 -52 41 -100 94 -19 21 -34 45 -34 53 0 8 -4 14 -10 14 -5 0 -10 8 -10 18 0 10 -6 27 -14 38 -24 34 -49 206 -37 251 6 21 11 58 11 82 l0 43 73 -75 c39 -41 87 -92 105 -113z m-754 65 c48 -17 86 -35 86 -39 0 -5 9 -12 20 -15 23 -7 140 -120 163 -157 8 -13 17 -42 21 -65 l6 -43 -64 0 c-59 0 -68 3 -113 39 -50 39 -108 101 -96 101 3 0 -3 10 -15 23 -11 12 -30 43 -42 69 -11 25 -24 48 -28 50 -12 5 -42 68 -32 68 5 0 47 -14 94 -31z m1291 -666 c30 -44 55 -86 55 -92 0 -6 12 -36 26 -68 33 -72 52 -272 34 -359 -11 -51 -13 -53 -33 -42 -12 6 -24 14 -27 17 -8 10 -73 40 -100 46 -33 8 -57 29 -109 98 -76 100 -111 248 -81 341 17 53 41 148 52 209 l11 59 59 -64 c32 -34 83 -100 113 -145z m-880 36 c134 -29 218 -68 311 -145 28 -22 33 -34 39 -92 4 -37 10 -71 15 -77 4 -5 10 -26 13 -45 2 -19 9 -50 15 -67 l11 -33 -36 0 c-63 0 -163 37 -243 92 -53 35 -156 136 -193 188 -68 98 -137 209 -137 223 0 2 35 -5 78 -15 42 -10 100 -23 127 -29z m1423 -703 c20 -27 44 -57 52 -66 8 -9 24 -34 35 -55 11 -21 28 -49 38 -62 29 -36 92 -171 112 -238 10 -33 21 -64 25 -70 4 -5 11 -29 15 -52 5 -35 1 -53 -28 -115 -84 -175 -117 -244 -126 -257 -7 -11 -29 0 -102 52 -112 78 -137 103 -178 180 -39 75 -52 135 -58 272 -5 106 18 291 37 305 9 6 50 209 50 246 0 28 -4 32 128 -140z m-883 -62 c55 -9 119 -25 142 -35 23 -11 46 -19 50 -19 5 0 42 -20 83 -44 l75 -44 -4 -105 c-1 -58 2 -120 7 -139 6 -18 18 -62 28 -98 9 -36 23 -75 31 -87 7 -13 9 -23 5 -23 -18 0 -136 41 -142 49 -3 4 -32 20 -64 35 -65 31 -137 80 -149 102 -4 8 -12 14 -18 14 -15 0 -79 62 -79 76 0 7 -3 14 -7 16 -8 3 -83 110 -138 197 -16 26 -42 63 -57 82 -16 20 -28 38 -28 40 0 9 170 -2 265 -17z m112 -801 c21 -10 40 -21 43 -24 3 -3 64 -25 135 -49 72 -24 159 -58 195 -75 36 -17 84 -40 107 -51 24 -10 43 -22 43 -26 0 -4 13 -14 28 -22 57 -29 172 -170 174 -213 0 -10 -5 -75 -12 -145 -6 -70 -9 -132 -5 -138 8 -13 -1 -13 -45 0 -19 6 -70 15 -112 20 -42 5 -87 15 -100 22 -153 85 -198 140 -313 378 -30 63 -60 122 -65 130 -5 8 -16 29 -24 47 -8 17 -29 55 -48 85 -48 75 -50 78 -44 78 3 0 22 -8 43 -17z m1299 -231 c24 -51 44 -98 44 -104 0 -5 7 -22 15 -36 15 -27 19 -37 57 -137 21 -56 47 -205 48 -276 0 -69 -9 -103 -37 -135 -14 -16 -33 -40 -41 -54 -9 -14 -22 -29 -29 -33 -7 -4 -13 -13 -13 -20 0 -7 -9 -23 -20 -37 l-19 -25 -54 60 c-30 33 -73 74 -95 90 -69 51 -99 163 -82 304 11 92 36 193 56 226 6 11 20 47 30 80 10 33 21 62 25 65 8 6 59 132 60 151 1 8 4 5 6 -6 3 -11 25 -62 49 -113z m-776 -782 c8 -5 38 -11 65 -15 59 -8 185 -45 185 -54 0 -4 15 -15 33 -25 17 -11 82 -70 144 -133 91 -94 115 -125 133 -172 21 -56 21 -60 5 -120 -8 -33 -21 -101 -28 -150 l-12 -89 -45 20 c-91 41 -110 49 -151 63 -73 26 -193 170 -267 321 -44 89 -87 184 -108 234 -10 25 -31 66 -46 92 l-27 47 52 -6 c29 -3 59 -9 67 -13z m1141 -257 c12 -54 27 -118 36 -143 17 -52 43 -266 43 -360 0 -36 -7 -110 -15 -165 -13 -87 -19 -104 -45 -130 -46 -46 -110 -128 -110 -141 0 -28 -29 -21 -41 9 -7 18 -16 34 -20 37 -11 7 -49 99 -49 116 0 8 -4 14 -8 14 -9 0 -22 37 -42 110 -24 93 4 356 39 368 6 2 11 10 11 18 0 8 16 37 35 64 19 27 35 52 35 54 0 2 18 35 39 73 21 37 45 94 52 126 7 31 14 55 16 53 3 -2 13 -48 24 -103z m-891 -662 c3 -4 23 -15 45 -25 22 -11 42 -22 45 -25 3 -4 31 -20 62 -36 74 -40 114 -71 224 -180 54 -53 99 -107 109 -130 36 -85 54 -188 57 -328 2 -75 2 -137 1 -137 -13 0 -155 107 -168 126 -9 14 -23 33 -30 42 -8 9 -35 46 -62 82 -26 36 -50 67 -53 70 -17 14 -90 121 -110 160 -12 25 -28 52 -35 60 -6 8 -24 45 -40 83 -15 37 -32 67 -37 67 -4 0 -8 8 -8 18 0 9 -16 53 -35 97 -19 44 -35 83 -35 88 0 8 61 -20 70 -32z m1179 -368 c6 -60 12 -142 12 -183 2 -136 -44 -370 -73 -370 -4 0 -8 -7 -8 -15 0 -8 -4 -15 -9 -15 -5 0 -14 -14 -21 -31 -7 -17 -18 -36 -24 -42 -7 -7 -23 -30 -36 -52 -22 -37 -79 -113 -106 -142 -17 -17 -28 176 -19 320 7 120 20 179 59 261 13 28 31 67 40 86 9 19 32 64 52 100 20 36 51 96 70 133 19 37 38 66 43 63 5 -3 13 -54 20 -113z m-848 -761 c75 -75 149 -157 165 -182 16 -25 32 -47 35 -50 16 -12 169 -324 169 -344 0 -12 6 -31 14 -42 8 -11 17 -42 21 -69 3 -28 13 -81 21 -119 8 -38 13 -70 11 -73 -3 -2 -18 18 -35 44 -16 26 -43 63 -58 82 -16 19 -45 53 -64 76 -19 24 -42 51 -50 61 -9 11 -48 55 -88 99 -40 44 -72 84 -72 88 0 8 -11 22 -41 56 -27 31 -92 150 -125 231 -10 25 -21 47 -25 50 -3 3 -16 59 -28 125 -12 66 -28 126 -34 134 -37 46 67 -48 184 -167z m1126 -356 c5 -112 -3 -175 -27 -211 -4 -5 -12 -25 -18 -42 -26 -78 -142 -212 -217 -251 -37 -19 -80 -57 -146 -129 -37 -39 -89 -118 -123 -185 -31 -61 -41 -65 -49 -21 -14 72 -48 178 -72 224 -14 28 -24 53 -21 56 3 3 10 -5 15 -19 13 -35 69 -80 95 -76 19 3 22 12 28 98 4 52 14 118 22 145 8 28 25 86 37 130 13 44 25 82 28 85 3 3 17 27 31 54 13 27 32 59 42 70 82 100 157 186 235 271 51 54 93 104 94 110 4 39 41 -213 46 -309z"/>
</g>
</svg>